<svg width="220" height="280" viewBox="0 0 220 280" xmlns="http://www.w3.org/2000/svg">
  <g transform="translate(110 92)">
    <path d="M 34 54 A 54 54 0 1 1 34 -54" fill="none" stroke="#1C5D96" stroke-width="16" stroke-linecap="round"/>
    <path d="M 10 -70 A 72 72 0 0 1 58 -38" fill="none" stroke="#1EA7FD" stroke-width="10" stroke-linecap="round"/>
    <path d="M 38 42 A 60 60 0 0 1 14 64" fill="none" stroke="#1EA7FD" stroke-width="10" stroke-linecap="round"/>
    <path d="M -6 -36 A 22 22 0 0 1 13 -28" fill="none" stroke="#72D2FF" stroke-width="7" stroke-linecap="round"/>
    <g fill="none" stroke-linecap="round">
      <line x1="-82" y1="-10" x2="-82" y2="10" stroke="#1EA7FD" stroke-width="6"/>
      <line x1="-97" y1="-18" x2="-97" y2="18" stroke="#1C5D96" stroke-width="8"/>
      <line x1="-112" y1="-10" x2="-112" y2="10" stroke="#72D2FF" stroke-width="6"/>
      <circle cx="-128" cy="0" r="4" fill="#72D2FF" stroke="none"/>
      <line x1="82" y1="-10" x2="82" y2="10" stroke="#1EA7FD" stroke-width="6"/>
      <line x1="97" y1="-18" x2="97" y2="18" stroke="#1C5D96" stroke-width="8"/>
      <line x1="112" y1="-10" x2="112" y2="10" stroke="#72D2FF" stroke-width="6"/>
      <circle cx="128" cy="0" r="4" fill="#72D2FF" stroke="none"/>
    </g>
    <text x="4" y="18" font-family="'Segoe UI', Arial, sans-serif" font-size="62" font-weight="700" fill="#1C5D96" text-anchor="middle">&#9834;</text>
  </g>

  <text x="110" y="210" font-family="'Segoe UI', Arial, sans-serif" font-size="44" font-weight="800"
        letter-spacing="6" fill="#1D2736" text-anchor="middle">CAMS</text>
  <text x="110" y="242" font-family="'Segoe UI', Arial, sans-serif" font-size="15" font-weight="600"
        fill="#4B5B70" text-anchor="middle">Context-Aware Music System</text>
</svg>
